<svg width="696" height="140" viewBox="0 0 696 140" fill="none" xmlns="http://www.w3.org/2000/svg">
<g clip-path="url(#clip0_2628_11947)">
<g clip-path="url(#clip1_2628_11947)">
<path d="M434.99 31.1016H365.461V48.9632H423.146C425.813 42.4096 429.85 36.3786 434.99 31.1016Z" fill="url(#paint0_linear_2628_11947)"/>
<path d="M26.3792 82.8658H65.4639V103.522H2.125V-0.361328H26.3792V82.8658Z" fill="white"/>
<path d="M123.142 33.1101H146.006V103.521H123.142V94.6258C118.199 101.26 109.393 105.331 100.278 105.331C80.0408 105.331 65.8281 90.4041 65.8281 68.3912C65.8281 46.3782 80.0408 31.3008 100.587 31.3008C109.393 31.3008 118.199 35.0701 123.142 41.5534V33.1101ZM122.37 68.3912C122.37 59.1939 114.954 51.9568 105.685 51.9568C95.9527 51.9568 89.1554 59.3447 89.1554 68.3912C89.1554 77.4376 95.9527 84.6747 105.84 84.6747C115.109 84.6747 122.37 76.9853 122.37 68.3912Z" fill="white"/>
<path d="M203.52 33.1113H228.083L183.592 138.201H159.183L176.949 95.0794L148.523 33.1113H173.859L188.844 69.5986L203.52 33.1113Z" fill="white"/>
<path d="M296.931 74.8744H244.097C246.26 81.6593 252.285 85.8809 260.936 85.8809C267.733 85.8809 274.685 82.8654 279.165 78.6438L290.906 93.1181C283.8 100.657 271.441 105.331 259.391 105.331C236.527 105.331 220.461 89.9518 220.461 68.5419C220.461 45.6243 238.536 31.3008 259.237 31.3008C279.938 31.3008 297.24 45.4735 297.24 66.8834C297.24 68.8435 297.086 71.4066 296.931 74.8744ZM274.531 61.7571C274.222 54.8215 267.888 50.1475 259.7 50.1475C252.903 50.1475 246.26 53.3138 243.943 61.7571H274.531Z" fill="white"/>
<path d="M355.434 33.4116L350.027 54.6707C345.547 52.1076 341.994 51.9568 339.677 51.9568C330.717 51.9568 323.301 59.3447 323.301 80.1515V103.521H300.438V33.1101H322.992V48.0367C327.163 36.4271 335.815 31.3008 344.62 31.3008C348.019 31.3008 351.727 31.6023 355.434 33.4116Z" fill="white"/>
<path d="M484.806 -5.18555H507.515V103.522H484.806V95.6822C479.554 102.467 469.821 105.332 462.406 105.332C444.486 105.332 427.492 91.0082 427.492 68.2413C427.492 45.4745 444.486 31.3017 462.406 31.3017C469.821 31.3017 479.554 34.1664 484.806 40.8005V-5.18555ZM483.879 68.2413C483.879 59.1949 476.001 51.9577 467.349 51.9577C458.698 51.9577 450.665 59.3457 450.665 68.2413C450.665 77.137 458.389 84.6757 467.349 84.6757C476.309 84.6757 483.879 77.2878 483.879 68.2413Z" fill="white"/>
<path d="M568.642 33.1101H591.351V95.0781C591.351 124.931 575.285 140.009 549.177 140.009C532.802 140.009 518.898 130.661 513.182 117.393L532.029 110.005C534.655 115.734 541.607 120.408 549.177 120.408C561.072 120.408 568.642 113.925 568.642 97.792V95.6812C563.235 102.315 553.657 105.331 546.242 105.331C528.321 105.331 511.328 91.0072 511.328 68.2404C511.328 45.4735 528.321 31.3008 546.242 31.3008C553.657 31.3008 563.235 34.1655 568.642 40.7995V33.1101ZM567.715 68.2404C567.715 59.1939 559.836 51.9568 551.185 51.9568C542.534 51.9568 534.501 59.3447 534.501 68.2404C534.501 77.136 542.225 84.6747 551.185 84.6747C560.145 84.6747 567.715 77.2868 567.715 68.2404Z" fill="white"/>
<path d="M671.634 74.8744H618.8C620.963 81.6593 626.988 85.8809 635.639 85.8809C642.436 85.8809 649.388 82.8654 653.868 78.6438L665.609 93.1181C658.503 100.657 646.144 105.331 634.094 105.331C611.23 105.331 595.164 89.9518 595.164 68.5419C595.164 45.6243 613.239 31.3008 633.94 31.3008C654.641 31.3008 671.943 45.4735 671.943 66.8834C671.943 68.8435 671.789 71.4066 671.634 74.8744ZM649.234 61.7571C648.925 54.8215 642.591 50.1475 634.403 50.1475C627.606 50.1475 620.963 53.3138 618.646 61.7571H649.234Z" fill="white"/>
<path d="M419.464 67.5485C419.464 64.5632 419.742 61.6381 420.267 58.7734H365.477V77.1578H420.442C419.814 74.0318 419.474 70.8253 419.474 67.5485H419.464Z" fill="url(#paint1_linear_2628_11947)"/>
<path d="M422.95 85.6504H365.461V103.512H434.547C429.5 98.2149 425.545 92.194 422.96 85.6504H422.95Z" fill="url(#paint2_linear_2628_11947)"/>
</g>
</g>
<defs>
<linearGradient id="paint0_linear_2628_11947" x1="435.451" y1="48.7386" x2="365.656" y2="48.9261" gradientUnits="userSpaceOnUse">
<stop stop-color="white"/>
<stop offset="0.53" stop-color="#BA9C31"/>
<stop offset="1" stop-color="#8914E5"/>
</linearGradient>
<linearGradient id="paint1_linear_2628_11947" x1="420.808" y1="76.9266" x2="365.63" y2="77.0404" gradientUnits="userSpaceOnUse">
<stop stop-color="white"/>
<stop offset="0.53" stop-color="#BA9C31"/>
<stop offset="1" stop-color="#8914E5"/>
</linearGradient>
<linearGradient id="paint2_linear_2628_11947" x1="435.006" y1="103.287" x2="365.655" y2="103.473" gradientUnits="userSpaceOnUse">
<stop stop-color="white"/>
<stop offset="0.53" stop-color="#BA9C31"/>
<stop offset="1" stop-color="#8914E5"/>
</linearGradient>
<clipPath id="clip0_2628_11947">
<rect width="695.333" height="140" fill="white"/>
</clipPath>
<clipPath id="clip1_2628_11947">
<rect width="669.816" height="145.185" fill="white" transform="translate(2.125 -5.18555)"/>
</clipPath>
</defs>
</svg>
